<?xml version="1.0" encoding="UTF-8"?>
<svg id="W14-3" xmlns="http://www.w3.org/2000/svg" width="40.7472in" height="33.8299in" viewBox="0 0 2933.7998 2435.7547">
  <path d="M2832.5497,1368.0554L222.75,2423.7706c-106.4953,43.0795-222.75-35.2994-222.75-150.178V162.1621C0,47.2835,116.2546-31.0954,222.75,11.9841l2609.7998,1055.7152c135.0001,54.6102,135.0001,245.7459,0,300.3561Z" style="fill: #fcd116;"/>
  <path d="M2870.55,1154.1874c-12.8801-20.1901-31.3401-35.25-54.8801-44.77L205.88,53.6974c-14.28-5.77-29.08-8.7-44.01-8.7-30.01,0-59.78,12.2-81.68,33.47-22.69,22.04-35.19,51.76-35.19,83.69v2111.43c0,31.9399,12.5,61.6699,35.19,83.7,21.9,21.27,51.67,33.47,81.68,33.47,14.93,0,29.73-2.9299,44.01-8.7l2609.7899-1055.72c23.54-9.52,42-24.58,54.8801-44.77,11.9399-18.72,18.25-40.74,18.25-63.6899s-6.3101-44.97-18.25-63.6899ZM2817.4399,1247.6774c-5.78,9.0599-14.0898,15.6899-25.3899,20.26L182.25,2323.6574c-6.73,2.72-13.59,4.0999-20.38,4.0999-13.56,0-27.69-5.8599-37.79-15.6699-10.52-10.21-16.08-23.52-16.08-38.5V162.1573c0-14.96,5.56-28.28,16.08-38.49,10.1-9.81,24.23-15.67,37.79-15.67,6.79,0,13.65,1.38,20.38,4.11l2609.8,1055.71c11.3,4.5701,19.6099,11.2001,25.3899,20.26,5.47,8.5701,8.3601,18.88,8.3601,29.8s-2.8901,21.23-8.3601,29.8Z"/>
  <g id="NO">
    <path d="M272.3922,650.1113v243.7662h-56.3922v-360.002h56.3922l130.4796,229.9062v-229.9062h56.4819v360.002h-50.1813l-136.7801-243.7662Z"/>
    <path d="M791.9956,713.8765c0,12.9151,2.726,186.3011-126.9942,186.3011s-126.9942-173.386-126.9942-186.3011-2.726-186.2562,126.9942-186.2562,126.9942,173.341,126.9942,186.2562ZM665.6268,842.1271c38.5185,0,69.7977-36.7649,69.7977-128.2506s-31.2792-128.2506-69.7977-128.2506-69.7977,36.72-69.7977,128.2506,31.2797,128.2506,69.7977,128.2506Z"/>
  </g>
  <g id="PASSING">
    <path d="M339.84,1241.2298h-67.0501v156.645h-56.7899v-359.9999h136.0802c84.69,0,108.9898,68.8504,108.9898,101.0705,0,22.3652-12.2852,102.2844-121.23,102.2844ZM272.7899,1183.1346h80.1448c45.1801,0,49.9952-32.5794,49.9952-44.1893,0-16.8757-12.69-44.2352-48.0601-44.2352h-82.08v88.4245Z"/>
    <path d="M711.2872,1296.8052h-113.0397l-35.5952,101.0695h-60.9751l124.5153-359.9999h57.1947l124.4704,359.9999h-60.9751l-35.5952-101.0695ZM618.5871,1238.7101h72.4053l-35.5952-101.0246-36.8101,101.0246Z"/>
    <path d="M857.8702,1313.4104l54.2698-20.16c15.1652,34.0649,43.0198,52.965,77.0852,52.965,32.805,0,55.6649-22.6806,55.6649-52.965,0-48.1055-55.6649-55.4856-102.3298-74.4307-21.4652-8.8197-69.39-30.2844-69.39-89.5495,0-70.6952,47.9248-97.1553,112.2746-97.1553,50.4454,0,84.5103,29.0256,102.1951,73.17l-50.4898,15.1207c-8.325-16.2458-25.7852-31.5452-56.0252-31.5452-43.5599,0-52.6047,23.7598-52.6047,36.3599,0,33.6146,29.0251,40.2751,76.1398,55.0804,47.9702,15.0748,98.2799,37.1695,98.2799,114.2097-.0449,77.6701-63.09,109.7095-113.7146,109.7095-61.8301,0-107.3701-36.5396-131.3549-90.8093Z"/>
    <path d="M1153.9506,1313.4104l54.2698-20.16c15.1652,34.0649,43.0198,52.965,77.0852,52.965,32.805,0,55.6649-22.6806,55.6649-52.965,0-48.1055-55.6649-55.4856-102.3298-74.4307-21.4652-8.8197-69.39-30.2844-69.39-89.5495,0-70.6952,47.9248-97.1553,112.2746-97.1553,50.4454,0,84.5103,29.0256,102.1951,73.17l-50.4898,15.1207c-8.325-16.2458-25.7852-31.5452-56.0252-31.5452-43.5599,0-52.6047,23.7598-52.6047,36.3599,0,33.6146,29.0251,40.2751,76.1398,55.0804,47.9702,15.0748,98.2799,37.1695,98.2799,114.2097-.0449,77.6701-63.09,109.7095-113.7146,109.7095-61.8301,0-107.3701-36.5396-131.3549-90.8093Z"/>
    <path d="M1455.2304,1037.8748h57.5995v359.9999h-57.5995v-359.9999Z"/>
    <path d="M1643.0207,1154.11v243.7648h-56.7904v-359.9999h56.7904l131.3999,229.9048v-229.9048h56.8802v359.9999h-50.5353l-137.7448-243.7648Z"/>
    <path d="M2031.9659,1031.6197c57.6898,0,90.1804,21.87,114.5701,79.5608l-54.3147,21.4198c-15.1657-31.5901-30.2854-42.9305-58.0951-42.9305-79.1106,0-74.5655,120.4199-74.5655,128.8353,0,13.5445-3.0597,127.5745,66.9607,127.5745,36.6294,0,63.1793-22.7246,63.1793-55.5745v-15.1198h-65.6999v-56.8802h122.4903v72c0,65.655-47.9697,113.6696-113.7155,113.6696-13.0494,0-131.309,10.7553-131.309-186.2995,0-27.5851,1.5294-186.2556,130.4994-186.2556Z"/>
  </g>
  <g id="ZONE">
    <path d="M216,1846.4826l136.1701-254.2505h-122.0401v-50.3546h187.5149v32.7601l-147.6901,278.1451h147.735v49.0948h-201.6898v-55.3948Z"/>
    <path d="M447.9435,1721.1123c0-188.5047,87.4352-185.4899,106.83-185.4899s105.66-2.88,105.66,185.6247c0,189.8553-86.2647,186.8855-105.66,186.8855s-106.83,2.9698-106.83-187.0203ZM554.1885,1586.1127c-10.2597,0-56.6546-2.1153-56.6546,135.2701,0,138.3747,46.3949,136.2594,56.6546,136.2594s56.6102,2.1153,56.6102-136.2594c0-137.3854-46.35-135.2701-56.6102-135.2701Z"/>
    <path d="M752.8194,1660.6323v241.2451h-51.6603v-359.9999h51.6603l98.3248,216v-216h51.7052v359.9999h-39.0602l-110.9698-241.2451Z"/>
    <path d="M950.3099,1541.8775h169.7403v50.5353h-117.8099v90.9451h74.6998v49.2745h-74.6998v118.7548h131.7597v50.4903h-183.6901v-359.9999Z"/>
  </g>
</svg>